<?xml version="1.0" encoding="UTF-8" standalone="no"?>
<!-- Created with Inkscape (http://www.inkscape.org/) -->

<svg
   width="13.840351"
   height="13.840351"
   viewBox="0 0 3.6619258 3.6619258"
   version="1.1"
   id="svg1"
   xml:space="preserve"
   xmlns:xlink="http://www.w3.org/1999/xlink"
   xmlns="http://www.w3.org/2000/svg"
   xmlns:svg="http://www.w3.org/2000/svg"><defs
     id="defs1"><linearGradient
       id="linearGradient9"><stop
         style="stop-color:#8b00ef;stop-opacity:1;"
         offset="0"
         id="stop9" /><stop
         style="stop-color:#2c0040;stop-opacity:1;"
         offset="1"
         id="stop8" /></linearGradient><linearGradient
       id="linearGradient6"><stop
         style="stop-color:#282828;stop-opacity:1;"
         offset="0"
         id="stop6" /><stop
         style="stop-color:#000000;stop-opacity:1;"
         offset="1"
         id="stop7" /></linearGradient><radialGradient
       xlink:href="#linearGradient6"
       id="radialGradient7"
       cx="3.5958645"
       cy="1.0226796"
       fx="3.5958645"
       fy="1.0226796"
       r="1.8309631"
       gradientUnits="userSpaceOnUse"
       gradientTransform="matrix(-1.0493827,0.893004,-0.64808354,-0.76156925,7.3220588,-1.0383371)" /><radialGradient
       xlink:href="#linearGradient9"
       id="radialGradient8"
       cx="334.23703"
       cy="8.8141451"
       fx="334.23703"
       fy="8.8141451"
       r="164.51958"
       gradientUnits="userSpaceOnUse"
       gradientTransform="matrix(-1.5882499,1.617127,-0.71344713,-0.70070907,792.0243,-461.16482)" /><radialGradient
       xlink:href="#linearGradient9"
       id="radialGradient2"
       gradientUnits="userSpaceOnUse"
       gradientTransform="matrix(-1.5882499,1.617127,-0.71344713,-0.70070907,792.0243,-461.16482)"
       cx="334.23703"
       cy="8.8141451"
       fx="334.23703"
       fy="8.8141451"
       r="164.51958" /><radialGradient
       xlink:href="#linearGradient9"
       id="radialGradient3"
       gradientUnits="userSpaceOnUse"
       gradientTransform="matrix(-1.5882499,1.617127,-0.71344713,-0.70070907,792.0243,-461.16482)"
       cx="334.23703"
       cy="8.8141451"
       fx="334.23703"
       fy="8.8141451"
       r="164.51958" /><radialGradient
       xlink:href="#linearGradient9"
       id="radialGradient4"
       gradientUnits="userSpaceOnUse"
       gradientTransform="matrix(-1.5882499,1.617127,-0.71344713,-0.70070907,792.0243,-461.16482)"
       cx="334.23703"
       cy="8.8141451"
       fx="334.23703"
       fy="8.8141451"
       r="164.51958" /><radialGradient
       xlink:href="#linearGradient9"
       id="radialGradient5"
       gradientUnits="userSpaceOnUse"
       gradientTransform="matrix(-1.5882499,1.617127,-0.71344713,-0.70070907,792.0243,-461.16482)"
       cx="334.23703"
       cy="8.8141451"
       fx="334.23703"
       fy="8.8141451"
       r="164.51958" /><radialGradient
       xlink:href="#linearGradient9"
       id="radialGradient6"
       gradientUnits="userSpaceOnUse"
       gradientTransform="matrix(-1.5882499,1.617127,-0.71344713,-0.70070907,792.0243,-461.16482)"
       cx="334.23703"
       cy="8.8141451"
       fx="334.23703"
       fy="8.8141451"
       r="164.51958" /></defs><g
     id="layer1"
     transform="translate(-0.28570343,-0.28570343)"><circle
       style="fill:url(#radialGradient7);fill-opacity:1;stroke-width:0.264583"
       id="path3"
       cx="2.1166666"
       cy="2.1166666"
       r="1.8309631" /><g
       style="fill:url(#radialGradient8);fill-opacity:1"
       id="g4"
       transform="matrix(0.00634395,0,0,0.00634395,1.0729627,1.0729637)"><g
         id="g3"
         style="fill:url(#radialGradient6);fill-opacity:1">
	<g
   id="g1"
   style="fill:url(#radialGradient3);fill-opacity:1">
		<path
   d="m 328.307,226.785 c -0.743,-0.744 -1.874,-0.944 -2.826,-0.497 -22.006,10.286 -46.545,15.723 -70.963,15.723 -44.739,0 -86.799,-17.422 -118.433,-49.056 C 86.413,143.283 73.017,67.17 102.751,3.558 103.197,2.605 102.998,1.475 102.254,0.732 101.51,-0.012 100.38,-0.21 99.428,0.235 81.267,8.724 64.814,20.274 50.525,34.563 17.943,67.144 0,110.463 0,156.539 c 0,46.076 17.943,89.395 50.524,121.975 32.58,32.582 75.899,50.525 121.976,50.525 46.076,0 89.395,-17.943 121.976,-50.525 14.29,-14.289 25.839,-30.743 34.328,-48.903 0.445,-0.953 0.247,-2.082 -0.497,-2.826 z"
   id="path1"
   style="fill:url(#radialGradient2);fill-opacity:1" />
	</g>
	<g
   id="g2"
   style="fill:url(#radialGradient5);fill-opacity:1">
		<path
   d="m 167.174,159.365 c 0,0.64 0.244,1.28 0.732,1.768 0.976,0.977 2.56,0.977 3.535,0 12.417,-12.417 24.907,-18.713 37.123,-18.713 12.216,0 24.706,6.296 37.123,18.713 0.488,0.488 1.128,0.732 1.768,0.732 0.003,0 0.007,0 0.011,0 1.391,0.045 2.509,-1.116 2.509,-2.5 0,-0.785 -0.362,-1.486 -0.928,-1.944 -24.802,-24.918 -24.744,-49.15 0.176,-74.07 0.488,-0.488 0.732,-1.128 0.732,-1.768 0,-0.64 -0.244,-1.28 -0.732,-1.768 -0.976,-0.977 -2.56,-0.977 -3.535,0 -12.417,12.416 -24.907,18.713 -37.123,18.713 -12.216,0 -24.706,-6.296 -37.123,-18.713 -0.976,-0.977 -2.56,-0.977 -3.535,0 -0.488,0.488 -0.732,1.128 -0.732,1.768 0,0.64 0.244,1.28 0.732,1.768 24.979,24.98 24.979,49.266 0,74.247 -0.488,0.487 -0.733,1.127 -0.733,1.767 z"
   id="path2"
   style="fill:url(#radialGradient4);fill-opacity:1" />
	</g>
</g></g></g></svg>